<svg width="49" height="13" viewBox="0 0 49 13" fill="none" xmlns="http://www.w3.org/2000/svg">
<path d="M0.632 12C0.525333 12 0.434667 11.9627 0.36 11.888C0.285333 11.8133 0.248 11.7227 0.248 11.616V1.2C0.248 1.08267 0.28 0.986666 0.344 0.912C0.418667 0.837333 0.514667 0.799999 0.632 0.799999H4.536C7.68267 0.799999 9.288 2.25067 9.352 5.152C9.37333 5.77067 9.384 6.18667 9.384 6.4C9.384 6.60267 9.37333 7.01333 9.352 7.632C9.30933 9.12533 8.904 10.2293 8.136 10.944C7.37867 11.648 6.20533 12 4.616 12H0.632ZM4.536 10.144C5.42133 10.144 6.06133 9.94667 6.456 9.552C6.85067 9.15733 7.05867 8.50133 7.08 7.584C7.10133 6.944 7.112 6.544 7.112 6.384C7.112 6.21333 7.10133 5.81867 7.08 5.2C7.05867 4.32533 6.84 3.68533 6.424 3.28C6.008 2.864 5.352 2.656 4.456 2.656H2.504V10.144H4.536ZM14.906 12.16C13.7113 12.16 12.762 11.8187 12.058 11.136C11.3647 10.4533 10.9967 9.48267 10.954 8.224L10.938 7.824C10.938 6.49067 11.2847 5.44 11.978 4.672C12.682 3.904 13.6527 3.52 14.89 3.52C16.1593 3.52 17.1353 3.904 17.818 4.672C18.5113 5.44 18.858 6.464 18.858 7.744V8.08C18.858 8.18667 18.8207 8.27733 18.746 8.352C18.6713 8.42667 18.5753 8.464 18.458 8.464H13.146V8.592C13.1673 9.18933 13.3273 9.68533 13.626 10.08C13.9353 10.464 14.3567 10.656 14.89 10.656C15.498 10.656 15.994 10.4107 16.378 9.92C16.474 9.80267 16.5487 9.73333 16.602 9.712C16.6553 9.68 16.746 9.664 16.874 9.664H18.282C18.378 9.664 18.458 9.69067 18.522 9.744C18.5967 9.79733 18.634 9.872 18.634 9.968C18.634 10.224 18.4793 10.528 18.17 10.88C17.8713 11.2213 17.4393 11.52 16.874 11.776C16.3087 12.032 15.6527 12.16 14.906 12.16ZM16.65 7.104V7.072C16.65 6.44267 16.49 5.94133 16.17 5.568C15.8607 5.184 15.434 4.992 14.89 4.992C14.346 4.992 13.9193 5.184 13.61 5.568C13.3007 5.94133 13.146 6.44267 13.146 7.072V7.104H16.65ZM20.956 12C20.8493 12 20.7587 11.9627 20.684 11.888C20.6093 11.8133 20.572 11.7227 20.572 11.616V1.024C20.572 0.906666 20.6093 0.816 20.684 0.752C20.7587 0.677333 20.8493 0.639999 20.956 0.639999H22.3C22.4173 0.639999 22.508 0.677333 22.572 0.752C22.6467 0.816 22.684 0.906666 22.684 1.024V11.616C22.684 11.7227 22.6467 11.8133 22.572 11.888C22.508 11.9627 22.4173 12 22.3 12H20.956ZM28.406 12.16C27.2113 12.16 26.262 11.8187 25.558 11.136C24.8647 10.4533 24.4967 9.48267 24.454 8.224L24.438 7.824C24.438 6.49067 24.7847 5.44 25.478 4.672C26.182 3.904 27.1527 3.52 28.39 3.52C29.6593 3.52 30.6353 3.904 31.318 4.672C32.0113 5.44 32.358 6.464 32.358 7.744V8.08C32.358 8.18667 32.3207 8.27733 32.246 8.352C32.1713 8.42667 32.0753 8.464 31.958 8.464H26.646V8.592C26.6673 9.18933 26.8273 9.68533 27.126 10.08C27.4353 10.464 27.8567 10.656 28.39 10.656C28.998 10.656 29.494 10.4107 29.878 9.92C29.974 9.80267 30.0487 9.73333 30.102 9.712C30.1553 9.68 30.246 9.664 30.374 9.664H31.782C31.878 9.664 31.958 9.69067 32.022 9.744C32.0967 9.79733 32.134 9.872 32.134 9.968C32.134 10.224 31.9793 10.528 31.67 10.88C31.3713 11.2213 30.9393 11.52 30.374 11.776C29.8087 12.032 29.1527 12.16 28.406 12.16ZM30.15 7.104V7.072C30.15 6.44267 29.99 5.94133 29.67 5.568C29.3607 5.184 28.934 4.992 28.39 4.992C27.846 4.992 27.4193 5.184 27.11 5.568C26.8007 5.94133 26.646 6.44267 26.646 7.072V7.104H30.15ZM37.8008 12C36.8301 12 36.0994 11.7493 35.6088 11.248C35.1181 10.736 34.8728 9.98933 34.8728 9.008V5.392H33.6088C33.5021 5.392 33.4114 5.35467 33.3368 5.28C33.2621 5.20533 33.2248 5.11467 33.2248 5.008V4.064C33.2248 3.95733 33.2621 3.86667 33.3368 3.792C33.4114 3.71733 33.5021 3.68 33.6088 3.68H34.8728V1.024C34.8728 0.906666 34.9101 0.816 34.9848 0.752C35.0594 0.677333 35.1501 0.639999 35.2568 0.639999H36.5848C36.7021 0.639999 36.7928 0.677333 36.8568 0.752C36.9314 0.816 36.9688 0.906666 36.9688 1.024V3.68H38.9688C39.0754 3.68 39.1661 3.71733 39.2408 3.792C39.3154 3.86667 39.3528 3.95733 39.3528 4.064V5.008C39.3528 5.11467 39.3154 5.20533 39.2408 5.28C39.1661 5.35467 39.0754 5.392 38.9688 5.392H36.9688V8.832C36.9688 9.29067 37.0488 9.63733 37.2088 9.872C37.3688 10.1067 37.6301 10.224 37.9928 10.224H39.1128C39.2301 10.224 39.3208 10.2613 39.3848 10.336C39.4594 10.4 39.4968 10.4907 39.4968 10.608V11.616C39.4968 11.7227 39.4594 11.8133 39.3848 11.888C39.3208 11.9627 39.2301 12 39.1128 12H37.8008ZM44.5154 12.16C43.3207 12.16 42.3714 11.8187 41.6674 11.136C40.974 10.4533 40.606 9.48267 40.5634 8.224L40.5474 7.824C40.5474 6.49067 40.894 5.44 41.5874 4.672C42.2914 3.904 43.262 3.52 44.4994 3.52C45.7687 3.52 46.7447 3.904 47.4274 4.672C48.1207 5.44 48.4674 6.464 48.4674 7.744V8.08C48.4674 8.18667 48.43 8.27733 48.3554 8.352C48.2807 8.42667 48.1847 8.464 48.0674 8.464H42.7554V8.592C42.7767 9.18933 42.9367 9.68533 43.2354 10.08C43.5447 10.464 43.966 10.656 44.4994 10.656C45.1074 10.656 45.6034 10.4107 45.9874 9.92C46.0834 9.80267 46.158 9.73333 46.2114 9.712C46.2647 9.68 46.3554 9.664 46.4834 9.664H47.8914C47.9874 9.664 48.0674 9.69067 48.1314 9.744C48.206 9.79733 48.2434 9.872 48.2434 9.968C48.2434 10.224 48.0887 10.528 47.7794 10.88C47.4807 11.2213 47.0487 11.52 46.4834 11.776C45.918 12.032 45.262 12.16 44.5154 12.16ZM46.2594 7.104V7.072C46.2594 6.44267 46.0994 5.94133 45.7794 5.568C45.47 5.184 45.0434 4.992 44.4994 4.992C43.9554 4.992 43.5287 5.184 43.2194 5.568C42.91 5.94133 42.7554 6.44267 42.7554 7.072V7.104H46.2594Z" fill="#ED6368"/>
</svg>
