<svg width="30" height="13" viewBox="0 0 30 13" fill="none" xmlns="http://www.w3.org/2000/svg">
<path d="M7.704 10C7.82133 10 7.92267 10.0427 8.008 10.128C8.09333 10.2133 8.136 10.3147 8.136 10.432V11.568C8.136 11.6853 8.09333 11.7867 8.008 11.872C7.92267 11.9573 7.82133 12 7.704 12H0.68C0.562667 12 0.461333 11.9573 0.376 11.872C0.290667 11.7867 0.248 11.6853 0.248 11.568V1.232C0.248 1.11467 0.290667 1.01333 0.376 0.927999C0.461333 0.842666 0.562667 0.799999 0.68 0.799999H7.576C7.69333 0.799999 7.79467 0.842666 7.88 0.927999C7.96533 1.01333 8.008 1.11467 8.008 1.232V2.368C8.008 2.48533 7.96533 2.58667 7.88 2.672C7.79467 2.75733 7.69333 2.8 7.576 2.8H2.408V5.344H7.224C7.34133 5.344 7.44267 5.38667 7.528 5.472C7.61333 5.55733 7.656 5.65867 7.656 5.776V6.912C7.656 7.02933 7.61333 7.13067 7.528 7.216C7.44267 7.30133 7.34133 7.344 7.224 7.344H2.408V10H7.704ZM13.179 3.52C13.5097 3.52 13.803 3.552 14.059 3.616C14.3257 3.68 14.555 3.76 14.747 3.856C14.9497 3.952 15.1203 4.05867 15.259 4.176C15.3977 4.28267 15.5097 4.384 15.595 4.48V1.072C15.595 0.954666 15.6377 0.853333 15.723 0.768C15.8083 0.682666 15.9097 0.639999 16.027 0.639999H17.243C17.3603 0.639999 17.4617 0.682666 17.547 0.768C17.6323 0.853333 17.675 0.954666 17.675 1.072V11.568C17.675 11.6853 17.6323 11.7867 17.547 11.872C17.4617 11.9573 17.3603 12 17.243 12H16.027C15.9097 12 15.8083 11.9573 15.723 11.872C15.6377 11.7867 15.595 11.6853 15.595 11.568V11.2C15.5097 11.296 15.3977 11.4027 15.259 11.52C15.1203 11.6267 14.9497 11.728 14.747 11.824C14.555 11.92 14.3257 12 14.059 12.064C13.803 12.128 13.5097 12.16 13.179 12.16C12.6457 12.16 12.1603 12.0587 11.723 11.856C11.2963 11.6427 10.9283 11.3653 10.619 11.024C10.3203 10.672 10.0803 10.272 9.899 9.824C9.72833 9.36533 9.63233 8.89067 9.611 8.4C9.60033 8.24 9.595 8.05333 9.595 7.84C9.595 7.62667 9.60033 7.44 9.611 7.28C9.63233 6.78933 9.72833 6.32 9.899 5.872C10.0803 5.41333 10.3203 5.01333 10.619 4.672C10.9283 4.32 11.2963 4.04267 11.723 3.84C12.1603 3.62667 12.6457 3.52 13.179 3.52ZM11.691 7.392C11.659 7.69067 11.659 7.98933 11.691 8.288C11.755 8.98133 11.9683 9.48267 12.331 9.792C12.6937 10.0907 13.1363 10.24 13.659 10.24C14.1817 10.24 14.619 10.0853 14.971 9.776C15.3337 9.46667 15.5417 9.024 15.595 8.448C15.6163 8.288 15.627 8.08533 15.627 7.84C15.627 7.59467 15.6163 7.392 15.595 7.232C15.5417 6.67733 15.3337 6.24 14.971 5.92C14.619 5.6 14.1817 5.44 13.659 5.44C13.1363 5.44 12.6937 5.59467 12.331 5.904C11.9683 6.20267 11.755 6.69867 11.691 7.392ZM21.9653 11.568C21.9653 11.6853 21.9226 11.7867 21.8373 11.872C21.7519 11.9573 21.6506 12 21.5333 12H20.3173C20.1999 12 20.0986 11.9573 20.0133 11.872C19.9279 11.7867 19.8853 11.6853 19.8853 11.568V4.112C19.8853 3.99467 19.9279 3.89333 20.0133 3.808C20.0986 3.72267 20.1999 3.68 20.3173 3.68H21.5333C21.6506 3.68 21.7519 3.72267 21.8373 3.808C21.9226 3.89333 21.9653 3.99467 21.9653 4.112V11.568ZM21.6133 0.639999C21.7306 0.639999 21.8319 0.682666 21.9173 0.768C22.0026 0.853333 22.0453 0.954666 22.0453 1.072V2.32C22.0453 2.43733 22.0026 2.53867 21.9173 2.624C21.8319 2.70933 21.7306 2.752 21.6133 2.752H20.2373C20.1199 2.752 20.0186 2.70933 19.9333 2.624C19.8479 2.53867 19.8053 2.43733 19.8053 2.32V1.072C19.8053 0.954666 19.8479 0.853333 19.9333 0.768C20.0186 0.682666 20.1199 0.639999 20.2373 0.639999H21.6133ZM26.9665 8.992C26.9665 9.32267 27.0518 9.58933 27.2225 9.792C27.4038 9.984 27.7345 10.08 28.2145 10.08H29.1905C29.3078 10.08 29.4092 10.1227 29.4945 10.208C29.5798 10.2933 29.6225 10.3947 29.6225 10.512V11.568C29.6225 11.6853 29.5798 11.7867 29.4945 11.872C29.4092 11.9573 29.3078 12 29.1905 12H28.0065C27.0038 12 26.2305 11.76 25.6865 11.28C25.1532 10.7893 24.8865 10.0427 24.8865 9.04V5.6H23.8305C23.7132 5.6 23.6118 5.55733 23.5265 5.472C23.4412 5.38667 23.3985 5.28533 23.3985 5.168V4.112C23.3985 3.99467 23.4412 3.89333 23.5265 3.808C23.6118 3.72267 23.7132 3.68 23.8305 3.68H24.8865V1.072C24.8865 0.954666 24.9292 0.853333 25.0145 0.768C25.0998 0.682666 25.2012 0.639999 25.3185 0.639999H26.5345C26.6518 0.639999 26.7532 0.682666 26.8385 0.768C26.9238 0.853333 26.9665 0.954666 26.9665 1.072V3.68H29.0305C29.1478 3.68 29.2492 3.72267 29.3345 3.808C29.4198 3.89333 29.4625 3.99467 29.4625 4.112V5.168C29.4625 5.28533 29.4198 5.38667 29.3345 5.472C29.2492 5.55733 29.1478 5.6 29.0305 5.6H26.9665V8.992Z" fill="#5357B6"/>
</svg>
