<svg width="42" height="16" viewBox="0 0 42 16" fill="none" xmlns="http://www.w3.org/2000/svg">
<path d="M4.808 0.799999C6.14133 0.799999 7.15467 1.10933 7.848 1.728C8.54133 2.34667 8.888 3.20533 8.888 4.304C8.888 5.08267 8.70667 5.74933 8.344 6.304C7.992 6.848 7.46933 7.25333 6.776 7.52L8.984 11.472C9.016 11.536 9.032 11.5947 9.032 11.648C9.032 11.744 8.99467 11.8293 8.92 11.904C8.856 11.968 8.776 12 8.68 12H7.32C7.10667 12 6.94667 11.952 6.84 11.856C6.744 11.7493 6.67467 11.6533 6.632 11.568L4.536 7.84H2.408V11.568C2.408 11.6853 2.36533 11.7867 2.28 11.872C2.19467 11.9573 2.09333 12 1.976 12H0.68C0.562667 12 0.461333 11.9573 0.376 11.872C0.290667 11.7867 0.248 11.6853 0.248 11.568V1.232C0.248 1.11467 0.290667 1.01333 0.376 0.927999C0.461333 0.842666 0.562667 0.799999 0.68 0.799999H4.808ZM2.408 5.84H4.728C5.336 5.84 5.82133 5.73333 6.184 5.52C6.54667 5.30667 6.728 4.90133 6.728 4.304C6.728 3.70667 6.54667 3.30667 6.184 3.104C5.82133 2.90133 5.336 2.8 4.728 2.8H2.408V5.84ZM10.2818 7.84C10.2818 7.24267 10.3724 6.68267 10.5538 6.16C10.7351 5.62667 10.9964 5.168 11.3378 4.784C11.6791 4.38933 12.0898 4.08 12.5698 3.856C13.0604 3.632 13.6044 3.52 14.2018 3.52C14.7991 3.52 15.3378 3.632 15.8178 3.856C16.3084 4.06933 16.7244 4.36267 17.0658 4.736C17.4071 5.09867 17.6684 5.53067 17.8498 6.032C18.0418 6.52267 18.1378 7.04 18.1378 7.584V8.304C18.1378 8.42133 18.0951 8.52267 18.0098 8.608C17.9244 8.69333 17.8231 8.736 17.7058 8.736H12.3618C12.3618 8.98133 12.4098 9.2 12.5058 9.392C12.6124 9.57333 12.7511 9.728 12.9218 9.856C13.0924 9.984 13.2898 10.08 13.5138 10.144C13.7378 10.208 13.9671 10.24 14.2018 10.24C14.5431 10.24 14.8204 10.208 15.0338 10.144C15.2471 10.0693 15.4231 9.97867 15.5618 9.872C15.6791 9.78667 15.7751 9.728 15.8498 9.696C15.9244 9.664 16.0258 9.648 16.1538 9.648H17.4338C17.5511 9.648 17.6524 9.69067 17.7378 9.776C17.8338 9.86133 17.8764 9.96267 17.8658 10.08C17.8551 10.2293 17.7698 10.4213 17.6098 10.656C17.4604 10.8907 17.2311 11.12 16.9218 11.344C16.6124 11.568 16.2284 11.76 15.7698 11.92C15.3218 12.08 14.7991 12.16 14.2018 12.16C13.6044 12.16 13.0604 12.0587 12.5698 11.856C12.0898 11.6427 11.6791 11.344 11.3378 10.96C10.9964 10.576 10.7351 10.1227 10.5538 9.6C10.3724 9.06667 10.2818 8.48 10.2818 7.84ZM14.2018 5.44C13.8924 5.44 13.6258 5.488 13.4018 5.584C13.1884 5.66933 13.0071 5.78667 12.8578 5.936C12.7084 6.07467 12.5911 6.23467 12.5058 6.416C12.4311 6.58667 12.3831 6.752 12.3618 6.912H15.9778C15.9564 6.752 15.9138 6.58667 15.8498 6.416C15.7964 6.23467 15.7004 6.07467 15.5618 5.936C15.4338 5.78667 15.2578 5.66933 15.0338 5.584C14.8204 5.488 14.5431 5.44 14.2018 5.44ZM24.3813 12.16C24.0506 12.16 23.7519 12.128 23.4852 12.064C23.2293 12 22.9999 11.92 22.7973 11.824C22.6053 11.728 22.4399 11.6267 22.3013 11.52C22.1626 11.4027 22.0506 11.296 21.9653 11.2V14.608C21.9653 14.7253 21.9226 14.8267 21.8373 14.912C21.7519 14.9973 21.6506 15.04 21.5333 15.04H20.3173C20.1999 15.04 20.0986 14.9973 20.0133 14.912C19.9279 14.8267 19.8853 14.7253 19.8853 14.608V4.112C19.8853 3.99467 19.9279 3.89333 20.0133 3.808C20.0986 3.72267 20.1999 3.68 20.3173 3.68H21.5333C21.6506 3.68 21.7519 3.72267 21.8373 3.808C21.9226 3.89333 21.9653 3.99467 21.9653 4.112V4.48C22.0506 4.384 22.1626 4.28267 22.3013 4.176C22.4399 4.05867 22.6053 3.952 22.7973 3.856C22.9999 3.76 23.2293 3.68 23.4852 3.616C23.7519 3.552 24.0506 3.52 24.3813 3.52C24.9146 3.52 25.3946 3.62667 25.8213 3.84C26.2586 4.04267 26.6266 4.32 26.9253 4.672C27.2346 5.01333 27.4746 5.41333 27.6453 5.872C27.8266 6.32 27.9279 6.78933 27.9493 7.28C27.9599 7.44 27.9653 7.62667 27.9653 7.84C27.9653 8.05333 27.9599 8.24 27.9493 8.4C27.9279 8.89067 27.8266 9.36533 27.6453 9.824C27.4746 10.272 27.2346 10.672 26.9253 11.024C26.6266 11.3653 26.2586 11.6427 25.8213 11.856C25.3946 12.0587 24.9146 12.16 24.3813 12.16ZM25.8693 8.288C25.9013 7.98933 25.9013 7.69067 25.8693 7.392C25.8053 6.69867 25.5919 6.20267 25.2293 5.904C24.8666 5.59467 24.4239 5.44 23.9013 5.44C23.3786 5.44 22.9359 5.59467 22.5733 5.904C22.2213 6.21333 22.0186 6.656 21.9653 7.232C21.9439 7.392 21.9333 7.59467 21.9333 7.84C21.9333 8.08533 21.9439 8.288 21.9653 8.448C22.0186 9.00267 22.2213 9.44 22.5733 9.76C22.9359 10.08 23.3786 10.24 23.9013 10.24C24.4239 10.24 24.8666 10.0907 25.2293 9.792C25.5919 9.48267 25.8053 8.98133 25.8693 8.288ZM31.8715 11.568C31.8715 11.6853 31.8288 11.7867 31.7435 11.872C31.6582 11.9573 31.5568 12 31.4395 12H30.2235C30.1062 12 30.0048 11.9573 29.9195 11.872C29.8342 11.7867 29.7915 11.6853 29.7915 11.568V1.072C29.7915 0.954666 29.8342 0.853333 29.9195 0.768C30.0048 0.682666 30.1062 0.639999 30.2235 0.639999H31.4395C31.5568 0.639999 31.6582 0.682666 31.7435 0.768C31.8288 0.853333 31.8715 0.954666 31.8715 1.072V11.568ZM36.6008 11.552L33.4328 4.224C33.4221 4.192 33.4168 4.15467 33.4168 4.112C33.4168 3.99467 33.4594 3.89333 33.5448 3.808C33.6301 3.72267 33.7314 3.68 33.8488 3.68H35.0488C35.1768 3.68 35.2888 3.72267 35.3848 3.808C35.4808 3.89333 35.5448 3.97867 35.5768 4.064L37.7048 9.008L39.8328 4.064C39.8648 3.97867 39.9288 3.89333 40.0248 3.808C40.1208 3.72267 40.2328 3.68 40.3608 3.68H41.5608C41.6781 3.68 41.7794 3.72267 41.8648 3.808C41.9501 3.89333 41.9928 3.99467 41.9928 4.112C41.9928 4.15467 41.9874 4.192 41.9768 4.224L37.4808 14.656C37.4488 14.7413 37.3848 14.8267 37.2888 14.912C37.1928 14.9973 37.0808 15.04 36.9528 15.04H35.7528C35.6354 15.04 35.5341 14.9973 35.4488 14.912C35.3634 14.8267 35.3207 14.7253 35.3207 14.608C35.3207 14.5653 35.3261 14.528 35.3368 14.496L36.6008 11.552Z" fill="#5357B6"/>
</svg>
