<svg width="23" height="10" viewBox="0 0 23 10" fill="none" xmlns="http://www.w3.org/2000/svg">
<path d="M2.951 6.636L0.377 0.682C0.368333 0.656 0.364 0.625666 0.364 0.591C0.364 0.495666 0.398667 0.413333 0.468 0.344C0.537333 0.274666 0.619667 0.239999 0.715 0.239999H1.69C1.794 0.239999 1.885 0.274666 1.963 0.344C2.041 0.413333 2.093 0.482667 2.119 0.552L3.848 4.569L5.577 0.552C5.603 0.482667 5.655 0.413333 5.733 0.344C5.811 0.274666 5.902 0.239999 6.006 0.239999H6.981C7.07633 0.239999 7.15867 0.274666 7.228 0.344C7.29733 0.413333 7.332 0.495666 7.332 0.591C7.332 0.625666 7.32767 0.656 7.319 0.682L3.666 9.158C3.64 9.22733 3.588 9.29667 3.51 9.366C3.432 9.43533 3.341 9.47 3.237 9.47H2.262C2.16667 9.47 2.08433 9.43533 2.015 9.366C1.94567 9.29667 1.911 9.21433 1.911 9.119C1.911 9.08433 1.91533 9.054 1.924 9.028L2.951 6.636ZM11.2373 0.11C11.7139 0.11 12.1429 0.183666 12.5243 0.331C12.9143 0.478333 13.2479 0.682 13.5253 0.942C13.8113 1.202 14.0366 1.50533 14.2013 1.852C14.3746 2.19867 14.4743 2.57133 14.5003 2.97C14.5089 3.048 14.5133 3.14767 14.5133 3.269C14.5133 3.39033 14.5133 3.51167 14.5133 3.633C14.5133 3.75433 14.5133 3.87567 14.5133 3.997C14.5133 4.10967 14.5089 4.205 14.5003 4.283C14.4656 4.68167 14.3659 5.05433 14.2013 5.401C14.0366 5.74767 13.8113 6.051 13.5253 6.311C13.2479 6.56233 12.9143 6.76167 12.5243 6.909C12.1429 7.05633 11.7139 7.13 11.2373 7.13C10.7606 7.13 10.3273 7.05633 9.93728 6.909C9.55595 6.76167 9.22228 6.56233 8.93628 6.311C8.65895 6.051 8.43795 5.74767 8.27328 5.401C8.10861 5.05433 8.00895 4.68167 7.97428 4.283C7.96561 4.205 7.95695 4.10967 7.94828 3.997C7.94828 3.87567 7.94828 3.75433 7.94828 3.633C7.94828 3.51167 7.94828 3.39033 7.94828 3.269C7.95695 3.14767 7.96561 3.048 7.97428 2.97C8.00028 2.57133 8.09561 2.19867 8.26028 1.852C8.43361 1.50533 8.65895 1.202 8.93628 0.942C9.22228 0.682 9.55595 0.478333 9.93728 0.331C10.3273 0.183666 10.7606 0.11 11.2373 0.11ZM12.8103 3.035C12.7843 2.76633 12.7193 2.54533 12.6153 2.372C12.5199 2.19 12.3986 2.047 12.2513 1.943C12.1039 1.839 11.9436 1.76967 11.7703 1.735C11.5969 1.69167 11.4193 1.67 11.2373 1.67C11.0553 1.67 10.8776 1.69167 10.7043 1.735C10.5309 1.76967 10.3706 1.839 10.2233 1.943C10.0759 2.047 9.95028 2.19 9.84628 2.372C9.75095 2.54533 9.69028 2.76633 9.66428 3.035C9.65561 3.10433 9.64695 3.191 9.63828 3.295C9.63828 3.399 9.63828 3.50733 9.63828 3.62C9.63828 3.73267 9.63828 3.84533 9.63828 3.958C9.64695 4.062 9.65561 4.14433 9.66428 4.205C9.69028 4.47367 9.75095 4.699 9.84628 4.881C9.95028 5.05433 10.0759 5.193 10.2233 5.297C10.3706 5.401 10.5309 5.47467 10.7043 5.518C10.8776 5.55267 11.0553 5.57 11.2373 5.57C11.4193 5.57 11.5969 5.55267 11.7703 5.518C11.9436 5.47467 12.1039 5.401 12.2513 5.297C12.3986 5.193 12.5199 5.05433 12.6153 4.881C12.7193 4.699 12.7843 4.47367 12.8103 4.205C12.8189 4.14433 12.8233 4.062 12.8233 3.958C12.8233 3.84533 12.8233 3.73267 12.8233 3.62C12.8233 3.50733 12.8233 3.399 12.8233 3.295C12.8233 3.191 12.8189 3.10433 12.8103 3.035ZM15.9267 0.591C15.9267 0.495666 15.9614 0.413333 16.0307 0.344C16.1001 0.274666 16.1824 0.239999 16.2777 0.239999H17.2657C17.3611 0.239999 17.4434 0.274666 17.5127 0.344C17.5821 0.413333 17.6167 0.495666 17.6167 0.591V3.893C17.6167 4.413 17.7251 4.829 17.9417 5.141C18.1671 5.453 18.5311 5.609 19.0337 5.609C19.4931 5.609 19.8441 5.453 20.0867 5.141C20.3294 4.829 20.4507 4.413 20.4507 3.893V0.591C20.4507 0.495666 20.4854 0.413333 20.5547 0.344C20.6241 0.274666 20.7064 0.239999 20.8017 0.239999H21.7897C21.8851 0.239999 21.9674 0.274666 22.0367 0.344C22.1061 0.413333 22.1407 0.495666 22.1407 0.591V6.649C22.1407 6.74433 22.1061 6.82667 22.0367 6.896C21.9674 6.96533 21.8851 7 21.7897 7H20.8017C20.7064 7 20.6241 6.96533 20.5547 6.896C20.4854 6.82667 20.4507 6.74433 20.4507 6.649V6.35C20.2514 6.54933 20.0044 6.73133 19.7097 6.896C19.4151 7.052 19.0597 7.13 18.6437 7.13C18.1151 7.13 17.6774 7.04767 17.3307 6.883C16.9841 6.71833 16.7067 6.49733 16.4987 6.22C16.2907 5.94267 16.1434 5.622 16.0567 5.258C15.9701 4.88533 15.9267 4.49533 15.9267 4.088V0.591Z" fill="white"/>
</svg>
